#!OML:ASF E:\motion texture\Top Level 1\Subject 1\Session 1\male.ASF
:FULLY-SPECIFIED
:DEGREES
178
root 5.03763 17.8588 3.52816 141.093 -76.7653 -132.644
lowerback -2.03543 3.48836 9.16168
upperback -4.047 4.5012 4.01492
thorax -2.69092 1.94927 -0.93388
lowerneck -14.2237 -4.00292 -5.3851
upperneck 14.5259 -5.43883 6.14369
head 7.1051 -2.4021 2.30836
rclavicle 3.49116e-015 -3.37934e-014
rhumerus -7.17874 2.76138 -71.1036
rradius 56.0056
rwrist -1.24328
rhand -18.3747 -25.4896
rfingers 7.12502
rthumb 7.90865 -55.3217
lclavicle 3.49116e-015 -3.37934e-014
lhumerus -34.0011 24.1168 49.2343
lradius 59.0176
lwrist 2.34736
lhand -16.8783 22.3488
lfingers 7.12502
lthumb 9.35272 52.1213
rfemur 1.60867 4.72214 34.1088
rtibia 13.7773
rfoot -13.292 -5.90448
rtoes 7.05858
lfemur -29.9136 -1.99408 -2.6139
ltibia 10.6569
lfoot -6.69467 12.3121
ltoes -15.8934
179
root 4.88587 17.8358 3.52993 141.655 -76.6274 -133.049
lowerback -2.14563 3.5616 9.25302
upperback -4.12302 4.58679 3.94899
thorax -2.69022 1.9855 -1.04527
lowerneck -14.2911 -3.99433 -5.38388
upperneck 14.6464 -5.43615 6.16502
head 7.1563 -2.39726 2.31452
rclavicle 6.00205e-014 7.31528e-014
rhumerus -6.73673 2.5746 -71.0758
rradius 56.2054
rwrist -1.20157
rhand -18.5032 -25.4173
rfingers 7.12502
rthumb 7.78469 -55.254
lclavicle 6.00205e-014 7.31528e-014
lhumerus -34.7443 25.5584 48.7167
lradius 59.8168
lwrist 2.87219
lhand -17.4756 22.4966
lfingers 7.12502
lthumb 8.77636 52.2941
rfemur 1.86182 4.79861 34.0304
rtibia 14.025
rfoot -13.5165 -5.71397
rtoes 6.14181
lfemur -29.8505 -2.54706 -2.36089
ltibia 9.19182
lfoot -6.98556 12.8052
ltoes -16.1128
180
root 4.73368 17.8127 3.53265 142.083 -76.5251 -133.339
lowerback -2.22186 3.61085 9.33372
upperback -4.19726 4.64518 3.88805
thorax -2.7099 2.0079 -1.14812
lowerneck -14.3625 -3.9792 -5.37026
upperneck 14.7677 -5.42476 6.17348
head 7.20723 -2.38854 2.31539
rclavicle -6.79595e-015 -1.70955e-014
rhumerus -6.33107 2.38354 -71.0796
rradius 56.3491
rwrist -1.14589
rhand -18.5771 -25.352
rfingers 7.12502
rthumb 7.71338 -55.1913
lclavicle -6.79595e-015 -1.70955e-014
lhumerus -35.5336 26.9782 48.2218
lradius 60.541
lwrist 3.43125
lhand -18.0431 22.5918
lfingers 7.12502
lthumb 8.22877 52.4116
rfemur 2.11456 4.87713 33.9484
rtibia 14.3182
rfoot -13.736 -5.55756
rtoes 5.13947
lfemur -29.9357 -2.80055 -2.2774
ltibia 8.37053
lfoot -7.29197 13.0182
ltoes -16.2179
181
root 4.58092 17.7902 3.536 142.315 -76.4655 -133.463
lowerback -2.26696 3.63157 9.41029
upperback -4.26301 4.66963 3.83254
thorax -2.74173 2.01348 -1.24543
lowerneck -14.4346 -3.95809 -5.34613
upperneck 14.8793 -5.40608 6.17789
head 7.25437 -2.37609 2.31406
rclavicle 2.77926e-014 5.40694e-014
rhumerus -5.96043 2.18352 -71.1194
rradius 56.4398
rwrist -1.07153
rhand -18.6169 -25.296
rfingers 7.12502
rthumb 7.67492 -55.1368
lclavicle 2.77926e-014 5.40694e-014
lhumerus -36.3494 28.368 47.7571
lradius 61.175
lwrist 4.04153
lhand -18.6212 22.6805
lfingers 7.12502
lthumb 7.67074 52.5213
rfemur 2.37501 4.94956 33.8723
rtibia 14.652
rfoot -13.9442 -5.43824
rtoes 4.06251
lfemur -30.161 -2.73274 -2.38818
ltibia 8.2052
lfoot -7.49697 12.941
ltoes -16.0755
182
root 4.42747 17.7683 3.5394 142.374 -76.4374 -133.435
lowerback -2.28461 3.62923 9.47803
upperback -4.32305 4.66705 3.78706
thorax -2.78685 2.00566 -1.32969
lowerneck -14.5019 -3.93288 -5.31646
upperneck 14.9776 -5.38194 6.17991
head 7.29581 -2.36106 2.31173
rclavicle 9.25591e-015 5.20816e-014
rhumerus -5.63535 1.97773 -71.19
rradius 56.4818
rwrist -0.982276
rhand -18.6446 -25.2491
rfingers 7.12502
rthumb 7.6482 -55.0908
lclavicle 9.25591e-015 5.20816e-014
lhumerus -37.1858 29.7152 47.3295
lradius 61.7048
lwrist 4.70102
lhand -19.213 22.784
lfingers 7.12502
lthumb 7.09953 52.6449
rfemur 2.63681 5.03156 33.8133
rtibia 15.0319
rfoot -14.1355 -5.36491
rtoes 2.94046
lfemur -30.5018 -2.38607 -2.67066
ltibia 8.62783
lfoot -7.51544 12.6724
ltoes -15.7076
183
root 4.27274 17.7474 3.54259 142.261 -76.4325 -133.263
lowerback -2.28856 3.60918 9.54074
upperback -4.37039 4.64218 3.75247
thorax -2.82967 1.98753 -1.40091
lowerneck -14.5471 -3.90615 -5.28106
upperneck 15.0446 -5.35582 6.18055
head 7.32296 -2.34544 2.30854
rclavicle 2.89977e-014 4.37326e-015
rhumerus -5.36172 1.76067 -71.2879
rradius 56.4827
rwrist -0.878154
rhand -18.6666 -25.2032
rfingers 7.12502
rthumb 7.62693 -55.0457
lclavicle 2.89977e-014 4.37326e-015
lhumerus -38.0219 31.0183 46.9477
lradius 62.1087
lwrist 5.39862
lhand -19.8093 22.9035
lfingers 7.12502
lthumb 6.52393 52.783
rfemur 2.90332 5.12054 33.7777
rtibia 15.4628
rfoot -14.3108 -5.33346
rtoes 1.7518
lfemur -30.9068 -1.89936 -3.0604
ltibia 9.50412
lfoot -7.33728 12.3756
ltoes -15.1415
184
root 4.11614 17.7276 3.54511 142.011 -76.4347 -132.985
lowerback -2.27788 3.57998 9.5978
upperback -4.40394 4.60647 3.72962
thorax -2.86871 1.96493 -1.45767
lowerneck -14.5722 -3.88191 -5.24709
upperneck 15.0791 -5.33292 6.1881
head 7.33647 -2.33136 2.30773
rclavicle 1.44864e-014 1.15295e-014
rhumerus -5.15138 1.53309 -71.4072
rradius 56.4521
rwrist -0.770396
rhand -18.6968 -25.1624
rfingers 7.12502
rthumb 7.5978 -55.006
lclavicle 1.44864e-014 1.15295e-014
lhumerus -38.8432 32.2626 46.6213
lradius 62.3737
lwrist 6.13005
lhand -20.4192 23.0711
lfingers 7.12502
lthumb 5.9351 52.9679
rfemur 3.17548 5.22842 33.7727
rtibia 15.9506
rfoot -14.4634 -5.34631
rtoes 0.513149
lfemur -31.3103 -1.3966 -3.48509
ltibia 10.6743
lfoot -7.0259 12.1693
ltoes -14.4296
185
root 3.95673 17.7097 3.54728 141.644 -76.4446 -132.632
lowerback -2.25038 3.54321 9.65313
upperback -4.42037 4.56223 3.71353
thorax -2.90078 1.93918 -1.50721
lowerneck -14.5718 -3.86201 -5.21113
upperneck 15.0823 -5.31633 6.19931
head 7.33577 -2.32053 2.30738
rclavicle 2.48357e-014 -1.98785e-015
rhumerus -5.01509 1.29415 -71.5483
rradius 56.3966
rwrist -0.668204
rhand -18.7359 -25.1314
rfingers 7.12502
rthumb 7.56006 -54.9763
lclavicle 2.48357e-014 -1.98785e-015
lhumerus -39.6404 33.4395 46.3507
lradius 62.4855
lwrist 6.87647
lhand -21.0155 23.276
lfingers 7.12502
lthumb 5.35934 53.1883
rfemur 3.46596 5.34185 33.7892
rtibia 16.4995
rfoot -14.5929 -5.39728
rtoes -0.792787
lfemur -31.6472 -0.972145 -3.90771
ltibia 11.9919
lfoot -6.64145 12.0707
ltoes -13.7318
186
root 3.79396 17.6933 3.54936 141.267 -76.4429 -132.308
lowerback -2.20636 3.50954 9.70388
upperback -4.42211 4.52378 3.70138
thorax -2.92688 1.91735 -1.5507
lowerneck -14.5535 -3.84838 -5.18225
upperneck 15.0642 -5.30883 6.2241
head 7.32616 -2.31375 2.31183
rclavicle 1.12935e-014 3.49861e-014
rhumerus -4.96096 1.04724 -71.7088
rradius 56.3219
rwrist -0.582018
rhand -18.7811 -25.1148
rfingers 7.12502
rthumb 7.51647 -54.9612
lclavicle 1.12935e-014 3.49861e-014
lhumerus -40.4046 34.5377 46.14
lradius 62.4326
lwrist 7.63728
lhand -21.5862 23.534
lfingers 7.12502
lthumb 4.80838 53.4595
rfemur 3.76534 5.46333 33.8161
rtibia 17.1233
rfoot -14.6862 -5.46304
rtoes -2.21484
lfemur -31.8745 -0.654582 -4.29799
ltibia 13.3257
lfoot -6.19866 12.0378
ltoes -13.0446
187
root 3.62718 17.6789 3.55188 140.961 -76.4358 -132.095
lowerback -2.15318 3.481 9.7436
upperback -4.40753 4.49294 3.68223
thorax -2.94044 1.90095 -1.59542
lowerneck -14.523 -3.84019 -5.14981
upperneck 15.0319 -5.3114 6.25987
head 7.31068 -2.31099 2.3183
rclavicle -1.3741e-014 -1.27222e-014
rhumerus -4.99179 0.788936 -71.8972
rradius 56.2312
rwrist -0.518256
rhand -18.8367 -25.1141
rfingers 7.12502
rthumb 7.46273 -54.9624
lclavicle -1.3741e-014 -1.27222e-014
lhumerus -41.1204 35.5618 45.9856
lradius 62.1972
lwrist 8.38404
lhand -22.1121 23.8325
lfingers 7.12502
lthumb 4.30048 53.7689
rfemur 4.07196 5.58758 33.8282
rtibia 17.8224
rfoot -14.7375 -5.52645
rtoes -3.69742
lfemur -31.9726 -0.457483 -4.6599
ltibia 14.5839
lfoot -5.6588 12.055
ltoes -12.3811
188
root 3.45639 17.6667 3.55525 140.893 -76.4268 -132.143
lowerback -2.10354 3.46479 9.74803
upperback -4.386 4.47836 3.64583
thorax -2.94401 1.89463 -1.63823
lowerneck -14.4766 -3.83744 -5.11391
upperneck 14.998 -5.32504 6.30625
head 7.29278 -2.31288 2.32662
rclavicle 2.0363e-014 4.77083e-015
rhumerus -5.11882 0.522741 -72.1186
rradius 56.1241
rwrist -0.475986
rhand -18.9027 -25.1325
rfingers 7.12502
rthumb 7.39909 -54.9831
lclavicle 2.0363e-014 4.77083e-015
lhumerus -41.79 36.5061 45.874
lradius 61.7664
lwrist 9.08581
lhand -22.559 24.1525
lfingers 7.12502
lthumb 3.869 54.0971
rfemur 4.35635 5.72776 33.7889
rtibia 18.6161
rfoot -14.7336 -5.57432
rtoes -5.24116
lfemur -31.9502 -0.356358 -5.01661
ltibia 15.7019
lfoot -4.99723 12.1396
ltoes -11.8081
189
root 3.28199 17.657 3.55971 141.177 -76.4478 -132.551
lowerback -2.07469 3.45647 9.68172
upperback -4.36096 4.4725 3.57913
thorax -2.93335 1.89593 -1.6726
lowerneck -14.4213 -3.83773 -5.0707
upperneck 14.9679 -5.34731 6.36315
head 7.27521 -2.31788 2.33633
rclavicle -5.99212e-014 -4.05521e-014
rhumerus -5.33782 0.252756 -72.3807
rradius 55.9958
rwrist -0.444958
rhand -18.9935 -25.1701
rfingers 7.12502
rthumb 7.31143 -55.0238
lclavicle -5.99212e-014 -4.05521e-014
lhumerus -42.4048 37.3928 45.7944
lradius 61.1209
lwrist 9.69386
lhand -22.8909 24.4582
lfingers 7.12502
lthumb 3.54845 54.4085
rfemur 4.58902 5.87437 33.6466
rtibia 19.5122
rfoot -14.6546 -5.59267
rtoes -6.81557
lfemur -31.8436 -0.337175 -5.41763
ltibia 16.6698
lfoot -4.23415 12.2861
ltoes -11.2503
190
root 3.10449 17.6503 3.56482 141.935 -76.523 -133.428
lowerback -2.0786 3.45406 9.50225
upperback -4.33707 4.4719 3.47475
thorax -2.90907 1.90437 -1.68256
lowerneck -14.3701 -3.84175 -5.03281
upperneck 14.9518 -5.37809 6.43938
head 7.26421 -2.32553 2.35225
rclavicle -2.60905e-016 -3.49861e-014
rhumerus -5.64519 -0.0171689 -72.6834
rradius 55.837
rwrist -0.420091
rhand -19.1094 -25.2258
rfingers 7.12502
rthumb 7.19959 -55.0833
lclavicle -2.60905e-016 -3.49861e-014
lhumerus -42.9661 38.2209 45.7427
lradius 60.2548
lwrist 10.1821
lhand -23.0915 24.7297
lfingers 7.12502
lthumb 3.35472 54.683
rfemur 4.73838 6.02928 33.3573
rtibia 20.5261
rfoot -14.4832 -5.58143
rtoes -8.36088
lfemur -31.681 -0.373542 -5.91062
ltibia 17.491
lfoot -3.41534 12.4884
ltoes -10.7337
